<?xml version="1.0" standalone="no"?>
<!DOCTYPE svg PUBLIC "-//W3C//DTD SVG 20010904//EN"
 "http://www.w3.org/TR/2001/REC-SVG-20010904/DTD/svg10.dtd">
<svg version="1.0" xmlns="http://www.w3.org/2000/svg"
 width="782.000000pt" height="782.000000pt" viewBox="0 0 782.000000 782.000000"
 preserveAspectRatio="xMidYMid meet">
<metadata>
Created by potrace 1.14, written by Peter Selinger 2001-2017
</metadata>
<g transform="translate(0.000000,782.000000) scale(0.100000,-0.100000)"
fill="#000000" stroke="none">
<path d="M3148 6955 c-2 -2 -25 -5 -53 -9 -80 -9 -147 -33 -211 -74 -142 -92
-202 -217 -200 -420 l1 -102 -175 -1 c-204 -1 -488 -5 -895 -13 -159 -3 -404
-8 -544 -11 -140 -3 -256 -7 -258 -9 -2 -2 24 -20 59 -40 35 -20 70 -41 78
-46 8 -5 55 -33 103 -61 49 -28 87 -52 85 -54 -3 -3 -151 -12 -323 -20 -73 -3
-311 -16 -380 -20 -22 -2 -51 -3 -65 -4 -22 -1 -18 -5 25 -30 28 -16 70 -39
95 -52 25 -12 47 -25 50 -28 3 -3 14 -11 25 -17 203 -112 264 -148 258 -154
-4 -3 -39 -19 -78 -35 -209 -85 -470 -253 -651 -420 -6 -5 -29 -25 -52 -44
l-42 -34 37 -31 c54 -46 260 -221 321 -273 29 -25 66 -58 81 -72 15 -14 42
-37 58 -51 46 -38 153 -132 179 -157 30 -30 42 -29 73 5 34 37 150 132 161
132 5 0 15 6 22 13 21 22 145 87 152 80 3 -4 6 -2 6 4 0 9 20 18 45 22 3 0 19
8 35 16 16 8 31 15 32 15 2 0 35 10 73 23 39 13 75 25 80 27 6 1 15 4 20 6 26
7 165 35 200 39 22 3 51 8 65 10 97 18 355 23 490 10 293 -28 499 -163 550
-360 2 -5 11 -33 21 -62 9 -28 15 -53 13 -56 -3 -2 -1 -23 4 -45 6 -23 7 -43
5 -46 -3 -3 -6 -26 -8 -53 -4 -64 -14 -116 -30 -164 -8 -21 -12 -39 -10 -39 8
0 -72 -178 -85 -190 -7 -7 -28 -41 -37 -60 -4 -8 -11 -19 -15 -25 -4 -5 -34
-44 -65 -85 -31 -41 -61 -80 -67 -86 -6 -6 -26 -29 -44 -52 -19 -23 -43 -51
-54 -64 -11 -13 -34 -40 -51 -62 -18 -21 -37 -43 -43 -50 -64 -68 -213 -305
-235 -375 -6 -20 -15 -40 -19 -46 -7 -9 -28 -75 -30 -97 -1 -4 -6 -22 -11 -40
-20 -68 -23 -107 -24 -248 0 -188 8 -233 90 -530 7 -26 46 -133 60 -165 73
-169 122 -274 161 -350 26 -49 55 -105 63 -122 8 -18 19 -33 23 -33 4 0 8 -6
8 -14 0 -14 94 -201 112 -223 6 -7 7 -13 3 -13 -4 0 -3 -6 3 -12 22 -27 74
-130 78 -156 9 -51 57 -135 103 -181 161 -159 416 -139 540 43 38 56 70 155
60 184 -5 12 -5 22 0 22 4 0 6 13 3 28 -2 20 8 48 34 93 21 35 41 65 46 67 4
2 8 8 8 14 0 10 69 111 106 155 11 12 30 36 43 53 24 30 59 66 148 147 23 22
68 56 100 77 32 22 70 47 84 57 41 28 190 100 199 97 5 -2 3 -16 -5 -33 -29
-60 -55 -128 -52 -131 2 -2 28 6 58 17 30 11 74 27 99 36 25 8 54 19 65 24 20
9 80 31 314 114 68 25 136 51 152 59 38 19 37 9 -6 -79 -18 -38 -32 -71 -30
-73 1 -2 70 16 151 38 82 23 154 43 159 44 6 1 28 8 50 14 22 6 51 13 65 16
14 3 57 14 95 26 39 11 81 23 95 26 14 3 30 6 35 8 6 1 28 8 50 14 22 6 51 13
65 16 38 8 72 15 105 23 17 4 39 7 50 8 11 0 25 3 30 7 13 8 261 3 300 -6 111
-26 220 -61 333 -106 l80 -32 39 18 c21 10 54 27 73 39 47 28 544 246 570 250
11 2 190 94 228 119 23 14 44 26 48 26 3 0 38 24 77 54 153 115 278 258 358
406 13 25 26 47 29 50 3 3 18 34 33 70 16 36 32 73 38 83 8 15 53 144 65 187
2 8 11 40 19 70 33 113 8 233 -69 335 -27 36 -137 148 -183 185 -32 26 -166
125 -218 160 -27 19 -60 43 -72 54 -13 11 -23 16 -23 12 0 -4 -7 -1 -15 6 -26
24 -40 34 -55 41 -8 4 -34 20 -57 35 -23 15 -63 40 -90 56 -26 16 -71 44 -100
62 -28 19 -56 34 -62 34 -6 0 -11 5 -11 10 0 6 -4 10 -10 10 -5 0 -38 17 -72
38 -35 21 -90 54 -123 72 -33 18 -65 38 -71 45 -6 6 -14 43 -18 82 -4 39 -9
79 -11 89 -2 11 -11 48 -20 84 -9 36 -17 74 -19 85 -7 33 -57 167 -81 215 -13
25 -58 79 -102 120 -88 83 -163 150 -168 150 -2 0 -14 10 -27 23 -13 12 -36
31 -52 42 -16 11 -37 28 -48 38 -10 9 -21 17 -26 17 -4 0 -19 10 -33 23 -14
12 -34 27 -45 34 -183 115 -204 127 -324 190 -71 37 -101 50 -215 95 -81 32
-270 92 -324 103 -9 2 -47 10 -86 19 -38 8 -83 17 -100 20 -16 2 -59 9 -95 14
-36 6 -94 14 -130 17 -155 16 -202 26 -240 51 -72 47 -171 157 -231 258 -19
31 -37 56 -41 56 -5 0 -8 5 -8 10 0 14 -113 183 -164 245 -118 142 -267 235
-413 258 -17 3 -35 7 -40 10 -27 17 -352 54 -365 42z"/>
</g>
</svg>
