<?xml version="1.0" encoding="UTF-8" standalone="no"?>
<!-- Created with Inkscape (http://www.inkscape.org/) -->

<svg
   width="115.22386mm"
   height="33.715347mm"
   viewBox="-3 -2 131.8969 38.594"
   version="1.1"
   id="svg5"
   xmlns:inkscape="http://www.inkscape.org/namespaces/inkscape"
   xmlns:sodipodi="http://sodipodi.sourceforge.net/DTD/sodipodi-0.dtd"
   xmlns="http://www.w3.org/2000/svg"
   xmlns:svg="http://www.w3.org/2000/svg"
   xmlns:rdf="http://www.w3.org/1999/02/22-rdf-syntax-ns#"
   xmlns:cc="http://creativecommons.org/ns#">
  <sodipodi:namedview
     id="namedview7"
     pagecolor="#505050"
     bordercolor="#ffffff"
     borderopacity="1"
     inkscape:showpageshadow="0"
     inkscape:pageopacity="0"
     inkscape:pagecheckerboard="1"
     inkscape:deskcolor="#505050"
     inkscape:document-units="mm"
     showgrid="false" />
  <defs
     id="defs2" />
  <g
     inkscape:label="Layer 1"
     inkscape:groupmode="layer"
     id="layer1"
     transform="translate(-21.975686,-21.052838)">
    <path
       style="fill:none;stroke:#000000;stroke-width:0.5;stroke-dasharray:none;stroke-dashoffset:0"
       d="m 20.975686,39.361128 c 9.393449,0 9.778022,-6.732235 13.656397,-6.732235 4.363505,0 3.215481,10.942656 6.656914,10.942656 4.076696,0 5.680598,-13.656727 9.582053,-13.656727 3.267077,0 5.734719,17.064777 8.985079,17.064777 3.368218,0 3.259782,-20.961349 7.580609,-20.961349 4.594301,0 3.440897,24.535907 7.075557,24.535907 3.635658,-0.08378 2.929635,-30.251319 7.849764,-30.251319 4.946458,0 4.18451,36.473046 9.161492,36.473046 5.325714,0 3.671731,-36.100712 10.078299,-36.100712 5.62464,0 2.28344,36.429035 9.69084,36.429035 6.41649,-0.002 5.18604,-28.905808 10.34433,-28.905808 5.20636,0 2.08351,21.387216 6.14903,21.385359 3.86298,-0.0018 5.29683,-11.873254 9.19071,-11.873254 1.64054,0 5.03504,4.164663 11.47819,4.164663"
       id="path846"
       sodipodi:nodetypes="ccccccccccccscc" />
  </g>
  <metadata
     id="metadata1368">
    <rdf:RDF>
      <cc:Work
         rdf:about="">
        <cc:license
           rdf:resource="http://artlibre.org/licence/lal" />
      </cc:Work>
      <cc:License
         rdf:about="http://artlibre.org/licence/lal">
        <cc:permits
           rdf:resource="http://creativecommons.org/ns#Reproduction" />
        <cc:permits
           rdf:resource="http://creativecommons.org/ns#Distribution" />
        <cc:permits
           rdf:resource="http://creativecommons.org/ns#DerivativeWorks" />
        <cc:requires
           rdf:resource="http://creativecommons.org/ns#ShareAlike" />
        <cc:requires
           rdf:resource="http://creativecommons.org/ns#Notice" />
        <cc:requires
           rdf:resource="http://creativecommons.org/ns#Attribution" />
      </cc:License>
    </rdf:RDF>
  </metadata>
</svg>
